<?xml version="1.0" encoding="iso-8859-1"?>
<!-- Generator: Adobe Illustrator 19.0.0, SVG Export Plug-In . SVG Version: 6.00 Build 0)  -->
<svg version="1.1" id="Layer_1" xmlns="http://www.w3.org/2000/svg" xmlns:xlink="http://www.w3.org/1999/xlink" x="0px" y="0px"
	 viewBox="0 0 202.178 202.178" style="enable-background:new 0 0 202.178 202.178;" xml:space="preserve">
<g>
	<g>
		<path d="M166.395,109.152c-1.882-25.887-24.296-46.392-51.577-46.392c-1.084,0-2.156,0.056-3.226,0.119
			c1.693-16.524-3.646-32.782-15.054-45.016C91.025,11.948,84.486,7.352,77.102,4.199c-1.29-0.548-2.798-0.292-3.832,0.672
			c-1.031,0.963-1.398,2.443-0.937,3.777c6.522,18.818,1.327,39.755-13.238,53.336c-14.566,13.583-35.81,17.307-54.13,9.482
			c-1.292-0.55-2.8-0.291-3.832,0.672c-1.031,0.963-1.398,2.443-0.937,3.775c2.627,7.584,6.757,14.429,12.273,20.345
			c5.41,5.798,12.043,10.349,19.274,13.479c-7.075,7.893-11.42,18.28-11.42,29.689c0,0.747,0.156,2.745,0.323,4.497
			c-8.712,5.081-14.587,14.435-14.587,25.144c0,16.375,13.831,29.674,30.346,29.183c0.096,0.009,0.193,0.012,0.291,0.012h63.166
			c0.221,0,0.439-0.021,0.651-0.061c9.305-0.648,17.116-6.305,20.85-14.207l45.328-0.046c19.899-1.024,35.487-17.448,35.487-37.39
			C202.18,126.465,186.275,110.021,166.395,109.152z M17.686,91.392c-3.03-3.247-5.58-6.813-7.628-10.655
			c18.905,4.997,39.334,0.047,53.901-13.537c14.57-13.588,20.928-33.621,17.265-52.826c3.691,2.312,7.071,5.105,10.097,8.352
			c10.374,11.124,15.057,26.045,13.024,41.086c-17.153,3.389-31.499,14.939-37.849,31.067c-0.531-0.019-1.064-0.028-1.6-0.028
			c-10.375,0-19.91,3.593-27.493,9.56C29.846,101.69,23.209,97.315,17.686,91.392z M99.674,191.106
			c-0.089,0.004-0.176,0.012-0.261,0.022H37.121c-0.185-0.021-0.373-0.026-0.564-0.021c-0.327,0.014-0.656,0.021-0.987,0.021
			c-12.339,0-22.377-9.898-22.377-22.063c0-12.165,10.037-22.063,22.377-22.063c0.745,0,1.483,0.037,2.211,0.106
			c1.656,0.174,3.199-0.841,3.726-2.418c3.548-10.614,13.856-17.746,25.647-17.746c14.826,0,26.888,11.397,26.888,25.436
			c0,0.977,0.4,1.912,1.109,2.586c0.71,0.672,1.67,1.031,2.639,0.975c0.313-0.016,0.629-0.024,0.945-0.024
			c9.851,0,17.866,7.898,17.866,17.606C116.601,182.898,109.166,190.622,99.674,191.106z M166.506,176.82l-43.027,0.039
			c0.149-1.094,0.253-2.203,0.253-3.337c0-12.891-10.017-23.51-22.751-24.639c-1.814-16.318-16.293-29.071-33.828-29.071
			c-13.905,0-26.202,7.955-31.431,20.058c-0.052,0-0.103,0-0.153,0c-2.782,0-5.465,0.409-8.018,1.124
			c-0.06-0.797-0.095-1.385-0.096-1.57c0-20.645,16.796-37.441,37.441-37.441c1.245,0,2.478,0.061,3.691,0.179
			c1.656,0.183,3.211-0.844,3.735-2.43c5.895-17.848,22.972-29.841,42.496-29.841c24.578,0,44.573,19.196,44.573,42.79
			c0,1.933,1.539,3.514,3.472,3.564c0.432,0.014,0.867,0.009,1.309,0.005l0.568-0.004c16.713,0,30.309,13.596,30.309,30.309
			C195.049,162.7,182.432,175.995,166.506,176.82z"/>
	</g>
</g>
<g>
</g>
<g>
</g>
<g>
</g>
<g>
</g>
<g>
</g>
<g>
</g>
<g>
</g>
<g>
</g>
<g>
</g>
<g>
</g>
<g>
</g>
<g>
</g>
<g>
</g>
<g>
</g>
<g>
</g>
</svg>
