<svg enable-background="new 0 0 1010 1010" viewBox="0 0 1010 1010" xmlns="http://www.w3.org/2000/svg"><path d="m826.1182 505c0 177.335-143.7831 321.1006-321.084 321.1006-177.2925 0-321.1182-143.7656-321.1182-321.1006 0-177.3184 143.8257-321.1182 321.1182-321.1182 177.3008 0 321.084 143.7998 321.084 321.1182z" fill="#ffca72"/><g fill="#37474f"><path d="m505.0342 833.0557c-180.9146 0-328.0899-147.1671-328.0899-328.0557 0-180.9233 147.1753-328.0903 328.0899-328.0903 180.8896 0 328.039 147.167 328.039 328.0903 0 180.8887-147.1494 328.0557-328.039 328.0557zm0-620.0772c-161.0181 0-292.0215 131.0117-292.0215 292.0215 0 160.9922 131.0034 291.9873 292.0215 291.9873 160.9931 0 291.9697-130.9951 291.9697-291.9873 0-161.0098-130.9766-292.0215-291.9697-292.0215z"/><path d="m1010 523.043h-95.4014v-36.086h95.4014z"/><path d="m95.3936 523.043h-95.3936v-36.086h95.3936z"/><path d="m524.999 95.3506h-36.0605v-95.3506h36.0605z"/><path d="m204.9355 244.8813-66.79-66.8491 25.5254-25.5088 66.79 66.8496z"/><path d="m805.1162 244.8813-25.5088-25.5083 66.7637-66.8496 25.5098 25.5088z"/><path d="m524.999 1010h-36.0605v-95.3848h36.0605z"/><path d="m163.6709 857.459-25.5254-25.5078 66.79-66.8496 25.5254 25.5078z"/><path d="m846.3711 857.459-66.7637-66.8496 25.5088-25.5078 66.7647 66.8496z"/></g></svg>